<svg class="mml" width="32" height="32" viewBox="0 0 32 32" fill="none" xmlns="http://www.w3.org/2000/svg" role="img" aria-label="BitModel"><defs><linearGradient id="mmlCube" x1="0" y1="0" x2="1" y2="1"><stop offset="0" stop-color="#4D97FF"/><stop offset="1" stop-color="#14D2FF"/></linearGradient><linearGradient id="mmlRefl" x1="0" y1="0" x2="1" y2="0"><stop offset="0" stop-color="#2BA3FF" stop-opacity="0"/><stop offset="1" stop-color="#2BA3FF" stop-opacity="0.5"/></linearGradient><linearGradient id="mmlSheen" x1="0" y1="0" x2="0" y2="1"><stop offset="0" stop-color="#9CC4FF" stop-opacity="0"/><stop offset="0.5" stop-color="#CFE5FF" stop-opacity="0.95"/><stop offset="1" stop-color="#9CC4FF" stop-opacity="0"/></linearGradient></defs><style>.mml .mml-real,.mml .mml-refl,.mml .mml-emit,.mml .mml-glint{transform-box:fill-box;transform-origin:center}.mml .mml-real{animation:mml-bob 3.4s ease-in-out infinite}.mml .mml-refl{animation:mml-bob 3.4s ease-in-out infinite}.mml .mml-emit{animation:mml-emit 3.4s cubic-bezier(.4,0,.2,1) infinite}.mml .mml-glint{animation:mml-glint 3.4s ease-in-out infinite}@keyframes mml-bob{0%,100%{transform:translateX(0)}50%{transform:translateX(-1.2px)}}@keyframes mml-emit{0%{transform:translateX(0) scale(.9);opacity:0}22%{transform:translateX(0) scale(1);opacity:.95}100%{transform:translateX(-11px) scale(1);opacity:0}}@keyframes mml-glint{0%{transform:translateY(-8px);opacity:0}25%,40%{opacity:.9}100%{transform:translateY(8px);opacity:0}}@media (prefers-reduced-motion:reduce){.mml .mml-real,.mml .mml-refl{animation:none;transform:none}.mml .mml-emit{animation:none;opacity:0}.mml .mml-glint{animation:none;opacity:.7;transform:none}}</style><g transform="translate(32 0) scale(-1 1)"><g class="mml-refl"><g transform="translate(1.86 8.08) scale(0.72)" fill="none" stroke="url(#mmlRefl)" stroke-width="2.78" stroke-linecap="round" stroke-linejoin="round"><path d="M12 2 20 6.5 20 15.5 12 20 4 15.5 4 6.5Z"/><path d="M4 6.5 12 11 20 6.5"/><path d="M12 11 12 20"/></g></g></g><line x1="16" y1="5" x2="16" y2="27" stroke="url(#mmlSheen)" stroke-width="1.6" stroke-linecap="round"/><line class="mml-glint" x1="16" y1="12.5" x2="16" y2="19.5" stroke="#EAF4FF" stroke-width="2.1" stroke-linecap="round"/><g class="mml-real"><g transform="translate(1.86 8.08) scale(0.72)" fill="none" stroke="url(#mmlCube)" stroke-width="2.78" stroke-linecap="round" stroke-linejoin="round"><path d="M12 2 20 6.5 20 15.5 12 20 4 15.5 4 6.5Z"/><path d="M4 6.5 12 11 20 6.5"/><path d="M12 11 12 20"/></g></g><g class="mml-emit" opacity="0"><g transform="translate(1.86 8.08) scale(0.72)" fill="none" stroke="url(#mmlCube)" stroke-width="2.78" stroke-linecap="round" stroke-linejoin="round"><path d="M12 2 20 6.5 20 15.5 12 20 4 15.5 4 6.5Z"/><path d="M4 6.5 12 11 20 6.5"/><path d="M12 11 12 20"/></g></g></svg>
